PathFileType	4	(X/Y/Z)	C:/Users/beibeiliu/ov580/test_trc/User2\sequence.20_training_dense_left.trc
DataRate	CameraRate	NumFrames	NumMarkers	Units	OrigDataRate	OrigDataStartFrame	OrigNumFrames
120	120	21	19	mm	120	62	92
Frame#	Time	ThumbCMC			ThumbMCP			ThumbIP			ThumbTip			IndexMCP			IndexPIP			IndexTip			MiddleMCP			MiddlePIP			MiddleTip			RingMCP			RingPIP			RingTip			PinkyMCP			PinkyPIP			PinkyTip			BackHand1			BackHand2			BackHand3	
		X0	Y0	Z0	X1	Y1	Z1	X2	Y2	Z2	X3	Y3	Z3	X4	Y4	Z4	X5	Y5	Z5	X6	Y6	Z6	X7	Y7	Z7	X8	Y8	Z8	X9	Y9	Z9	X10	Y10	Z10	X11	Y11	Z11	X12	Y12	Z12	X13	Y13	Z13	X14	Y14	Z14	X15	Y15	Z15	X16	Y16	Z16	X17	Y17	Z17	X18	Y18	Z18	
61	0.508333	-243.346	46.189	2.65078	-226.014	75.8444	-7.12919	-198.111	93.9755	-21.5796	-168.403	85.6758	-32.3105	-196.29	40.3637	-67.5832	-169.6	63.1888	-69.7912	-157.118	78.9566	-40.9988	-192.384	13.4023	-78.6168	-175.296	19.6233	-105.385	-160.099	27.7523	-131.136	-177.526	-10.3452	-59.9729	-166.16	-9.00123	-87.298	-150.37	-7.91586	-112.672	-164.013	-19.6064	-36.8904	-150.985	-22.6465	-59.3351	-143.155	-26.9389	-79.5109	-202.271	-16.5413	-17.52	-222.759	-24.5929	7.67158	-240.771	4.23661	-15.1329	
62	0.516667	-259.833	47.1011	2.49682	-249.389	82.0231	-8.81884	-228.214	104.301	-17.8885	-197.246	105.809	-27.5594	-207.716	59.4156	-67.1957	-190.512	85.6494	-66.9656	-179.023	103.193	-35.8303	-196.864	30.178	-74.7621	-181.928	43.1618	-103.263	-163.792	51.3445	-125.305	-175.863	12.2609	-58.7981	-164.737	15.8367	-81.8006	-146.429	20.6759	-107.823	-163.225	7.53246	-31.8057	-145.296	6.94807	-51.1454	-132.844	1.00696	-70.9949	-207.284	-2.98246	-13.4654	-223.431	-13.9451	8.4645	-242.186	8.68281	-15.6604	
63	0.525	-267.233	52.6034	3.94164	-263.744	88.0105	-5.15565	-243.441	113.296	-17.1291	-214.311	117.529	-25.7594	-221.984	69.7221	-66.187	-205.369	99.7198	-65.0292	-197.318	118.475	-37.292	-205.777	41.7303	-76.8578	-195.262	54.537	-101.637	-181.417	68.8406	-127.743	-187.179	26.2507	-58.0892	-173.539	31.3252	-85.1375	-158.013	36.527	-108.285	-173.248	23.7948	-33.3561	-152.576	23.8663	-52.2538	-141.83	22.072	-75.4765	-212.533	9.82146	-15.2691	-222.849	-8.97321	10.5496	-248.681	15.8364	-17.2608	
64	0.533333	-272.167	55.7172	3.48582	-273.974	91.89	-3.48968	-254.471	121.046	-24.6997	-227.716	121.938	-32.2411	-235.972	71.5591	-71.4344	-222.046	102.404	-71.7193	-215.212	121.005	-48.7516	-224.342	41.8331	-80.7091	-212.376	53.97	-109.989	-201.168	65.4697	-136.368	-198.331	27.0898	-65.8122	-189.73	31.283	-90.785	-179.78	38.7332	-118.817	-183.296	29.5945	-42.344	-166.415	28.0941	-63.2017	-154.033	23.0802	-81.1058	-217.757	13.6864	-16.8567	-227.532	0.494659	10.5772	-255.622	20.7863	-13.123	
65	0.541667	-279.819	58.9241	4.25147	-279.31	94.1194	-11.5245	-265.618	118.371	-27.133	-240.007	120.555	-45.2682	-257.526	61.3412	-74.1585	-239.856	92.7096	-81.3929	-226.575	115.385	-58.2817	-245.032	33.8522	-84.4012	-235.451	41.6371	-115.269	-228.157	48.6999	-141.041	-222.083	22.4311	-73.2358	-214.373	22.746	-101.04	-206.966	25.8519	-127.872	-198.09	23.0029	-53.7015	-183.386	19.294	-73.3228	-181.674	13.1949	-96.5777	-229.198	12.8159	-17.1696	-233.201	-0.238536	7.6748	-264.1	17.6307	-10.3206	
66	0.55	-287.689	61.5661	4.57159	-286.339	93.5931	-13.0932	-271.876	113.092	-40.5278	-249.55	110.755	-62.7812	-280.482	49.9521	-75.7648	-262.29	76.374	-91.7291	-241.612	98.5372	-73.5571	-271.16	18.4506	-84.845	-272.891	23.7483	-112.775	-266.598	29.0459	-147.138	-249.56	5.96306	-75.4251	-247.705	1.36666	-103.164	-249.548	5.11014	-129.477	-222.706	5.3805	-55.3019	-218.663	-0.865424	-82.3024	-214.601	-11.2573	-104	-249.041	3.64463	-18.3647	-248.456	-2.4812	9.01589	-281.054	15.8281	-5.98892	
67	0.558333	-285.925	61.5425	2.84222	-275.83	86.1343	-20.3801	-265.553	100.14	-53.9827	-250.582	84.0251	-77.5431	-298.504	39.4148	-75.3212	-280.025	56.6735	-97.3493	-249.655	71.4589	-89.4526	-303.499	9.00691	-78.1523	-309.897	11.0464	-111.324	-309.403	12.7974	-141.839	-288.403	-9.21707	-71.2106	-296.581	-12.6829	-101.474	-301.79	-9.23976	-128.965	-262.378	-20.2744	-60.9059	-268.457	-28.6227	-86.602	-276.838	-32.6893	-111.019	-275.457	-9.92452	-17.6573	-272.214	-10.5167	9.97174	-297.038	16.69	-2.17074	
68	0.566667	-266.275	53.6255	1.83632	-250.376	69.3524	-26.7348	-242.795	73.1054	-58.6068	-240.645	59.9323	-88.2918	-303.986	47.9626	-74.0376	-281.942	49.5753	-101.321	-251.271	40.6835	-98.677	-326.478	23.053	-70.7024	-334.707	27.8782	-100.99	-337.504	34.945	-132.625	-320.719	0.826039	-63.0244	-335.035	2.49746	-90.9008	-341.98	5.76267	-118.026	-304.172	-26.2242	-55.544	-320.576	-23.9109	-79.4716	-332.575	-19.8919	-100.722	-302.13	-8.73384	-18.1698	-296.871	-15.6145	13.5422	-301.397	22.5519	-0.110543	
69	0.575	-247.155	34.2377	1.74767	-228.613	41.9513	-30.5467	-220.097	45.5604	-63.6421	-228.048	36.216	-90.9061	-283.204	67.1334	-66.9081	-271.006	56.7973	-97.5732	-253.377	30.2168	-102.022	-318.273	58.0402	-64.7826	-324.691	69.4794	-90.902	-326.186	80.5796	-123.791	-330.194	32.3103	-56.702	-342.669	44.5946	-78.3159	-346.345	58.5249	-105.229	-331.106	3.54217	-49.1773	-345.013	15.9002	-69.0249	-357.832	24.4411	-85.6949	-314.161	9.59008	-9.71785	-308.201	-1.54562	20.1617	-290.928	34.4423	5.47525	
70	0.583333	-234.424	20.068	0.122723	-221.527	17.6897	-30.3755	-212.076	18.8375	-66.1045	-227.604	19.0159	-92.3735	-257.93	72.0693	-62.6337	-252.301	65.0574	-92.561	-254.926	27.1351	-104.227	-288.159	79.4664	-54.824	-292.695	96.3344	-82.0266	-289.372	110.314	-110.851	-315.219	64.2264	-47.4511	-318.91	86.5368	-70.9034	-322.391	103.376	-96.3143	-331.987	39.718	-42.0536	-343.524	53.9842	-57.3431	-349.423	76.1021	-74.4785	-309.911	34.1637	-6.92999	-302.027	20.1516	23.1704	-273.994	40.8961	8.99999	
71	0.591667	-225.925	16.4664	-2.45937	-210.805	4.78227	-28.7194	-209.811	4.63671	-65.1181	-224.796	6.97763	-92.2156	-242.822	68.4915	-65.4046	-240.162	56.2161	-96.1599	-250.305	23.0131	-103.487	-265.077	85.3238	-55.2475	-261.381	100.729	-83.8669	-260.238	115.053	-115.661	-291.024	80.3498	-49.0909	-293.694	96.8992	-66.6856	-293.564	117.747	-94.6429	-315.572	55.4174	-37.6543	-323.472	77.4752	-55.2921	-328.206	100.038	-67.9229	-293.757	49.9093	-6.16192	-291.859	36.452	24.8642	-254.455	47.4912	7.82364	
72	0.6	-208.961	15.5765	6.48539	-195.453	1.97532	-22.9085	-192.195	-5.11693	-59.199	-213.598	-1.89552	-82.0596	-221.928	61.3469	-68.2155	-223.285	46.0286	-96.4317	-232.581	13.5772	-100.056	-245.287	82.3889	-63.9392	-242.917	92.6008	-95.1518	-240.399	100.058	-123.161	-271.808	79.4227	-53.6157	-270.836	95.6037	-77.0871	-268.162	109.507	-103.934	-292.767	60.0547	-40.8894	-303.343	77.1869	-59.1455	-310.202	97.549	-72.1928	-275.588	56.2135	-3.20306	-272.084	46.2067	29.1406	-238.386	51.446	9.61329	
73	0.608333	-195.767	19.3986	13.36	-181.345	4.02557	-15.6335	-177.927	-9.72831	-50.8611	-193.337	-15.1413	-72.7995	-204.73	49.2285	-66.1706	-203.077	27.0079	-93.1617	-217.994	-6.02109	-90.8256	-227.926	69.1919	-66.4293	-227.409	74.4331	-96.9257	-225.146	78.1562	-132.213	-255.376	67.4168	-57.188	-255.881	78.5553	-86.8995	-256.374	87.4383	-115.202	-279.841	53.4595	-46.5559	-291.023	63.5876	-66.422	-292.531	80.1086	-86.4393	-257.577	54.0634	-7.50764	-262.951	50.2248	23.826	-225.027	53.5213	7.39884	
74	0.616667	-189.276	23.9873	15.8694	-165.501	4.94067	-6.52571	-161.725	-12.7553	-39.9895	-172.108	-23.9803	-62.0212	-196.012	35.886	-66.3492	-191.862	10.4938	-87.1339	-195.419	-23.3205	-80.0362	-221.457	54.7632	-72.958	-219.434	53.2894	-102.783	-213.425	52.3069	-132.692	-248.039	48.8261	-61.7165	-252.981	54.8724	-94.0551	-250.792	55.3107	-118.39	-273.779	31.9906	-48.8372	-279.044	35.982	-70.7849	-285.271	47.2464	-93.9912	-256.07	41.7671	-7.68078	-254.322	47.0309	23.7109	-219.365	51.7631	6.70806	
75	0.625	-186.156	28.058	13.5703	-162.669	9.09237	-4.35374	-148.281	-10.2577	-29.5418	-154.779	-29.596	-51.2956	-195.087	21.1097	-69.9834	-181.867	-8.80182	-82.6998	-176.025	-37.5304	-69.1387	-222.867	30.9404	-78.319	-219.252	23.8001	-108.94	-211.905	16.0623	-141.303	-251.169	18.5256	-70.9003	-249.613	18.8996	-98.6128	-250.702	14.0472	-130.603	-266.025	0.588319	-51.265	-276.936	-1.73369	-74.6345	-281.59	4.02376	-99.7258	-252.728	25.4361	-18.8027	-258.581	33.354	17.5667	-227.829	44.8186	1.13787	
76	0.633333	-192.441	26.4334	5.36615	-163.6	12.658	-5.31593	-146.399	-8.4588	-28.0823	-142.6	-30.1604	-46.8155	-192.708	8.69034	-71.3805	-170.933	-18.2779	-80.9792	-164.347	-44.9496	-62.2712	-225.02	3.93699	-86.058	-218.97	-6.98431	-113.839	-208.053	-15.4743	-140.172	-246.818	-10.6499	-74.0253	-249.864	-20.6034	-103.515	-245.689	-28.5813	-128.395	-262.695	-31.7749	-53.3896	-268.907	-39.3335	-74.9685	-277.305	-40.9077	-102.438	-256.184	0.112225	-20.0569	-268.227	8.91271	5.28234	-237.431	28.7814	-12.6753	
77	0.641667	-207.262	25.6537	0.846616	-173.315	21.8321	-10.8461	-143.676	9.22258	-27.527	-136.022	-13.757	-42.0831	-195.178	-2.77113	-75.769	-164.382	-19.7675	-80.2433	-147.956	-37.5009	-54.3405	-221.537	-14.8852	-87.1928	-209.717	-25.3796	-112.768	-196.56	-39.4052	-139.028	-237.66	-37.8018	-75.7941	-234.401	-50.2999	-103.151	-226.263	-58.9971	-129.738	-245.173	-55.6113	-53.1528	-248.145	-68.6971	-75.2986	-249.627	-75.6799	-96.588	-255.114	-23.125	-26.2473	-267.516	-14.1934	2.68649	-246.173	11.5189	-19.5735	
78	0.65	-221.847	32.7965	-5.04315	-188.285	38.7668	-18.6576	-157.648	34.9712	-32.0022	-142.455	13.2299	-42.1761	-192.756	-1.80672	-78.0156	-161.333	-3.23699	-81.1979	-140.699	-7.31517	-54.2497	-213.252	-29.1638	-83.403	-193.679	-34.3251	-114.407	-176.761	-39.6656	-136.37	-219.098	-49.5935	-69.0513	-209.727	-64.1336	-96.1673	-197.345	-69.7467	-118.868	-216.304	-65.0503	-43.0299	-213.415	-82.332	-69.0677	-212.586	-92.6786	-88.5561	-240.487	-35.7275	-21.8801	-257.682	-31.7003	1.31622	-248.207	0.1672	-21.5457	
79	0.658333	-238.135	30.925	-10.9382	-213.575	53.1867	-24.3303	-182.075	62.584	-40.8228	-157.709	46.4772	-48.7152	-197.781	4.80783	-78.3048	-164.031	17.3926	-80.7162	-147.928	28.9771	-57.7884	-200.948	-26.4314	-83.0758	-184.272	-24.9944	-108.441	-162.849	-28.3727	-131.597	-197.847	-46.7465	-69.6907	-183.189	-56.3718	-89.8907	-170.098	-57.9895	-114.168	-189.722	-56.5758	-39.2621	-179.236	-70.3361	-57.5258	-172.571	-80.5998	-78.5928	-224.147	-40.255	-17.6238	-244.936	-39.8883	2.55597	-249.183	-11.6691	-23.1369	
80	0.666667	-253.528	28.6496	-11.1903	-244.455	60.6489	-26.3754	-217.014	74.0378	-47.2506	-190.465	70.7592	-54.3978	-209.693	16.7469	-83.8838	-185.302	39.538	-86.9109	-175.188	61.4986	-64.07	-203.169	-15.0414	-84.0769	-187.462	-11.8548	-112.897	-172.239	-5.94727	-136.444	-192.391	-28.8712	-67.0443	-179.589	-32.8698	-90.553	-164.901	-32.8585	-119.872	-173.922	-36.3665	-41.5597	-164.555	-38.7584	-61.5963	-155.044	-51.1971	-80.0235	-211.791	-33.7809	-20.5523	-232.133	-34.1178	7.84911	-248.804	-14.1838	-18.7058	
81	0.675	-271.342	33.1776	-6.83842	-265.99	63.5568	-26.4003	-248.534	83.3485	-50.6036	-222.063	84.1913	-62.2731	-236.085	23.6319	-83.5512	-217.384	48.0777	-93.8214	-203.711	73.9488	-72.911	-225.468	-5.18586	-87.9265	-216.78	-0.821338	-118.647	-200.139	3.5804	-145.182	-203.834	-17.2324	-71.0813	-193.95	-21.1138	-96.6806	-186.957	-17.0891	-129.87	-185.376	-15.1299	-53.0576	-175.269	-19.9009	-73.3926	-163.929	-30.0305	-93.1966	-215.442	-21.1965	-19.335	-225.112	-26.1524	9.67297	-253.558	-9.95536	-15.1269	
